<?xml version="1.0" encoding="utf-8"?>
<!-- Generated by IcoMoon.io -->
<!DOCTYPE svg PUBLIC "-//W3C//DTD SVG 1.1//EN" "http://www.w3.org/Graphics/SVG/1.1/DTD/svg11.dtd">
<svg version="1.1" xmlns="http://www.w3.org/2000/svg" xmlns:xlink="http://www.w3.org/1999/xlink" width="32" height="32" viewBox="0 0 32 32">
<path d="M29.323 26.311l-5.76-5.76c1.388-2.004 2.083-4.238 2.083-6.7 0-1.601-0.311-3.132-0.932-4.593s-1.461-2.721-2.519-3.779-2.317-1.898-3.778-2.519c-1.461-0.621-2.992-0.932-4.593-0.932s-3.132 0.311-4.593 0.932c-1.461 0.621-2.721 1.461-3.779 2.519s-1.898 2.318-2.519 3.779c-0.621 1.461-0.932 2.992-0.932 4.593s0.311 3.132 0.932 4.593c0.621 1.461 1.461 2.72 2.519 3.778s2.318 1.898 3.779 2.519c1.461 0.621 2.992 0.932 4.593 0.932 2.463 0 4.697-0.694 6.701-2.083l5.76 5.743c0.403 0.425 0.906 0.638 1.511 0.638 0.582 0 1.086-0.213 1.511-0.638s0.638-0.929 0.638-1.511c0-0.593-0.207-1.097-0.621-1.511zM19.138 19.166c-1.472 1.472-3.244 2.208-5.315 2.208s-3.843-0.736-5.315-2.208c-1.472-1.472-2.208-3.244-2.208-5.315s0.736-3.843 2.208-5.315c1.472-1.472 3.244-2.208 5.315-2.208s3.843 0.736 5.315 2.208c1.472 1.472 2.209 3.244 2.209 5.315s-0.736 3.843-2.209 5.315z"></path>
</svg>
